<svg id="Choice_Coupled_" data-name="Choice Coupled " xmlns="http://www.w3.org/2000/svg" xmlns:xlink="http://www.w3.org/1999/xlink" width="75" height="75" viewBox="0 0 75 75">
  <defs>
    <style>
      .cls-1 {
        fill: none;
      }

      .cls-2 {
        clip-path: url(#clip-path);
      }

      .cls-3 {
        fill: #b764d8;
      }

      .cls-4 {
        fill: #fff;
      }

      .cls-5 {
        fill: #e4c5f0;
      }
    </style>
    <clipPath id="clip-path">
      <rect class="cls-1" width="75" height="75"/>
    </clipPath>
  </defs>
  <title>livein-minutes</title>
  <g class="cls-2">
    <g>
      <circle class="cls-3" cx="37.5" cy="37.5" r="37.5"/>
      <g>
        <path d="M47.4,53.4H54l-2.1-2.2a.61.61,0,0,1,0-.8l.3-.3a.48.48,0,0,1,.7,0h0l3.6,3.8a.61.61,0,0,1,0,.8L53,58.4a.48.48,0,0,1-.7,0h0l-.3-.3a.5.5,0,0,1,0-.8l2.1-2.2H47.5a.65.65,0,0,1-.6-.6V54A.46.46,0,0,1,47.4,53.4Z"/>
        <circle class="cls-4" cx="37.5" cy="35.6" r="16.7"/>
        <path id="Ellipse_14_copy" data-name="Ellipse 14 copy" class="cls-5" d="M20.8,35.6a16.7,16.7,0,0,1,33.4,0"/>
        <path d="M40.6,50.4c-.3.1-.6.1-.9.2a1.56,1.56,0,0,0-1.2,1.8,1.46,1.46,0,0,0,.6.9,1.39,1.39,0,0,0,1.1.2,4.25,4.25,0,0,1,1.1-.2,1.58,1.58,0,0,0,1-1.9A1.49,1.49,0,0,0,40.6,50.4ZM51.7,30.2a1.49,1.49,0,0,0,2.8-1,4.87,4.87,0,0,0-.4-1.1,1.43,1.43,0,0,0-1.9-.8h0a1.51,1.51,0,0,0-.8,2ZM45.5,48.3c-.3.2-.5.3-.8.5a1.47,1.47,0,0,0-.5,2.1c.1.2.3.3.4.5a1.54,1.54,0,0,0,1.6.1c.3-.2.7-.4,1-.6a1.48,1.48,0,0,0,.4-2.1,1.43,1.43,0,0,0-2.1-.5Zm10-13.9a1.5,1.5,0,1,0-3,.2h0v1a1.61,1.61,0,0,0,.6,1.3,1.14,1.14,0,0,0,.8.3,1.47,1.47,0,0,0,1.5-1.5h0a6.15,6.15,0,0,0,.1-1.3Zm-4.1,9.9a1.46,1.46,0,0,0-2.1.3h0a4.35,4.35,0,0,1-.6.7,1.46,1.46,0,0,0,.2,2.1l.1.1a1.55,1.55,0,0,0,2-.3c.2-.3.5-.6.7-.9A1.36,1.36,0,0,0,51.4,44.3Zm2.2-5.4a1.58,1.58,0,0,0-1.9,1h0l-.3.9a1.73,1.73,0,0,0,.5,1.8,1.55,1.55,0,0,0,2.1-.3c.1-.1.1-.2.2-.3.1-.4.3-.7.4-1.1A1.53,1.53,0,0,0,53.6,38.9ZM34.1,50.6a16.8,16.8,0,0,1-3.8-1.2h0a5.94,5.94,0,0,1-.8-.4h0a15.66,15.66,0,0,1-6.1-21.4c.3-.5.6-1,.9-1.4a13.75,13.75,0,0,1,3.8-3.8h.1a15.53,15.53,0,0,1,17.5-.1L44.5,24c-.3.5-.1.8.4.8l5.1-.5a.82.82,0,0,0,.8-.9v-.2l-1.4-5c-.2-.6-.5-.6-.9-.1l-1.2,1.7a18.48,18.48,0,0,0-13.5-2.9c-.5.1-1,.2-1.4.3h-.1a18.57,18.57,0,0,0-10.2,6.9.1.1,0,0,1-.1.1.52.52,0,0,0-.2.4c-.1.2-.3.4-.4.6v.1a18.59,18.59,0,0,0-2.9,11h0a3.75,3.75,0,0,0,.1,1.1v.1a3.59,3.59,0,0,0,.2,1.1A18.94,18.94,0,0,0,24,48.7h0a15.91,15.91,0,0,0,2.4,2,18,18,0,0,0,7.4,3.1,1.55,1.55,0,0,0,1.7-1.3,2.26,2.26,0,0,0-1.4-1.9ZM36,23a1.16,1.16,0,0,0-1.2,1.2V36.3l11,5.7a1.17,1.17,0,0,0,1.6-.5h0a1.17,1.17,0,0,0-.5-1.6l-9.7-5.1V24.2A1.22,1.22,0,0,0,36,23Z"/>
        <path id="Shape_12_copy" data-name="Shape 12 copy" d="M40.4,49.4c-.3.1-.6.1-.9.2a1.35,1.35,0,0,0-1.1,1.7,1.46,1.46,0,0,0,.6.9,1.39,1.39,0,0,0,1.1.2c.3-.1.7-.1,1-.2a1.33,1.33,0,0,0,1-1.7,1.44,1.44,0,0,0-1.7-1.1ZM50.7,30.6a1.79,1.79,0,0,0,.5.7,1.32,1.32,0,0,0,1.2.2,1.46,1.46,0,0,0,.9-1.8,4.18,4.18,0,0,0-.4-1,1.4,1.4,0,0,0-1.8-.8h0a1.4,1.4,0,0,0-.8,1.8A3.55,3.55,0,0,1,50.7,30.6ZM44.9,47.4a5.58,5.58,0,0,1-.8.5,1.39,1.39,0,1,0,1.4,2.4h0l.9-.6a1.53,1.53,0,0,0,.4-2,1.49,1.49,0,0,0-1.9-.3Zm9.3-12.9a1.4,1.4,0,1,0-2.8,0v1a1.43,1.43,0,0,0,.6,1.2c.2.2.5.2.8.3a1.37,1.37,0,0,0,1.4-1.4h0V34.5Zm-3.7,9.2a1.31,1.31,0,0,0-1.9.3h0c-.2.2-.4.5-.6.7a1.43,1.43,0,0,0,.2,2l.1.1a1.51,1.51,0,0,0,1.9-.2,5.72,5.72,0,0,1,.7-.8,1.83,1.83,0,0,0-.4-2.1Zm2-5.1a1.39,1.39,0,0,0-1.7.9h0a6.89,6.89,0,0,1-.3.8A1.57,1.57,0,0,0,51,42c.1.1.2.1.3.2a1.4,1.4,0,0,0,1.8-.8h0c.1-.3.2-.7.3-1a1.38,1.38,0,0,0-.9-1.8Zm-18.2,11a16.51,16.51,0,0,1-3.6-1.1h0c-.3-.1-.5-.3-.8-.4h0a14.65,14.65,0,0,1-5.7-20,14.8,14.8,0,0,1,.8-1.3,15.38,15.38,0,0,1,3.6-3.6h0A14.29,14.29,0,0,1,45,23l-1.1,1.6c-.3.4-.1.8.4.7l4.7-.4a.71.71,0,0,0,.7-.8v-.2l-1.3-4.6c-.1-.5-.5-.6-.8-.1l-1.1,1.6a17,17,0,0,0-12.6-2.7l-1.3.3h0a17.44,17.44,0,0,0-9.5,6.4l-.1.1c-.1.1-.2.2-.2.3a2.09,2.09,0,0,1-.4.6v.1a16.7,16.7,0,0,0-2.7,10.2h0a4.1,4.1,0,0,0,.1,1.1v.1c0,.4.1.7.1,1.1a16.84,16.84,0,0,0,4.9,9.4h0A20,20,0,0,0,27,49.7a16.19,16.19,0,0,0,6.9,2.9,1.32,1.32,0,0,0,1.5-1.3A1.59,1.59,0,0,0,34.3,49.6ZM36,23.8a1.11,1.11,0,0,0-1.1,1.1V36.2l10.3,5.4a1.06,1.06,0,0,0,1.5-.5h0a1.06,1.06,0,0,0-.5-1.5l-9.1-4.7v-10A1,1,0,0,0,36,23.8Z"/>
      </g>
    </g>
  </g>
</svg>
