<?xml version="1.0" encoding="utf-8"?>
<!-- Generator: Adobe Illustrator 16.0.0, SVG Export Plug-In . SVG Version: 6.00 Build 0)  -->
<!DOCTYPE svg PUBLIC "-//W3C//DTD SVG 1.0//EN" "http://www.w3.org/TR/2001/REC-SVG-20010904/DTD/svg10.dtd">
<svg version="1.0" id="Choice_Coupled_" xmlns="http://www.w3.org/2000/svg" xmlns:xlink="http://www.w3.org/1999/xlink" x="0px"
	 y="0px" width="75px" height="75px" viewBox="0 0 75 75" enable-background="new 0 0 75 75" xml:space="preserve">
<g>
	<defs>
		<rect id="SVGID_1_" y="0" width="75" height="75"/>
	</defs>
	<clipPath id="SVGID_2_">
		<use xlink:href="#SVGID_1_"  overflow="visible"/>
	</clipPath>
	<g clip-path="url(#SVGID_2_)">
		<g>
			<defs>
				<rect id="SVGID_3_" y="0.001" width="75" height="74.999"/>
			</defs>
			<clipPath id="SVGID_4_">
				<use xlink:href="#SVGID_3_"  overflow="visible"/>
			</clipPath>
			<g clip-path="url(#SVGID_4_)">
				<g>
					<defs>
						<rect id="SVGID_5_" y="0.001" width="75" height="74.999"/>
					</defs>
					<clipPath id="SVGID_6_">
						<use xlink:href="#SVGID_5_"  overflow="visible"/>
					</clipPath>
					<g clip-path="url(#SVGID_6_)">
						<circle fill="#39DCB1" cx="37.5" cy="37.5" r="37.5"/>
						<g>
							<path id="Rounded_Rectangle_3_1_" fill="#FFFFFF" stroke="#000000" stroke-width="3" d="M29.8,19.601H54
								c1.4,0,2.6,1.1,2.6,2.6v22.999c0,1.4-1.1,2.602-2.6,2.602H29.8c-1.4,0-2.6-1.102-2.6-2.602V22.201
								C27.3,20.701,28.4,19.601,29.8,19.601z"/>
							<path id="Rounded_Rectangle_3_copy_1_" fill="#39DCB1" stroke="#000000" stroke-width="3" d="M20.9,37.501h14
								c1.4,0,2.6,1.099,2.6,2.599V52.9c0,1.4-1.1,2.6-2.6,2.6h-14c-1.4,0-2.6-1.1-2.6-2.6V40C18.4,38.6,19.5,37.501,20.9,37.501z"
								/>
							<path d="M43.8,30.701l-9.8-0.2c-0.6,0-1.1,0.4-1.1,1l0,0c0,0.6,0.5,1.1,1.1,1.1l7.2,0.2l-5.6,5.1c-0.4,0.4-0.4,1.099,0,1.5
								s1.1,0.4,1.5,0l0,0l5.6-5.1L42.6,41.5c0,0.6,0.5,1.1,1.101,1.1c0.6,0,1.1-0.4,1.1-1l0,0l0.101-9.799
								C44.9,31.201,44.4,30.701,43.8,30.701z"/>
						</g>
					</g>
				</g>
			</g>
		</g>
	</g>
</g>
</svg>
