<svg width="239" height="250" viewBox="0 0 239 250" xmlns="http://www.w3.org/2000/svg"><g id="Stonebranch,-Home,-Product" stroke="none" stroke-width="1" fill="none" fill-rule="evenodd"><g id="Group-4" transform="matrix(-1 0 0 1 239 0)" fill-rule="nonzero"><path d="M170.612 4.522l18.733 6.695a2.4 2.4 0 0 1 1.556 1.843l3.41 19.34a2.4 2.4 0 0 1-.831 2.264l-15.314 12.698a2.4 2.4 0 0 1-2.34.413l-18.734-6.695a2.4 2.4 0 0 1-1.555-1.844l-3.41-19.339a2.4 2.4 0 0 1 .831-2.264l15.314-12.698a2.4 2.4 0 0 1 2.34-.413z" id="Polygon-Copy-2" fill="#4A90E2"/><path d="M107.59 1.588a18.8 18.8 0 0 0-18.62 3.284L7.587 73.627a18.8 18.8 0 0 0-6.382 17.625l18.653 105.784a18.8 18.8 0 0 0 12.025 14.38l99.99 36.774a18.8 18.8 0 0 0 18.621-3.283l81.382-68.755a18.8 18.8 0 0 0 6.381-17.626L219.605 52.742a18.8 18.8 0 0 0-12.025-14.38L107.59 1.588z" id="Polygon-Copy-3" stroke="#384A65" stroke-width=".8" opacity=".628"/></g></g></svg>